<svg width="2109" height="2077" viewBox="0 0 2109 2077" fill="none" xmlns="http://www.w3.org/2000/svg">
<g style="mix-blend-mode:screen" filter="url(#filter0_f_1405_184)">
<path d="M1539.04 1038.37C1539.04 779.695 1329.34 570 1070.67 570L1038.37 570C779.695 570 570 779.695 570 1038.37V1038.37C570 1297.04 779.695 1506.73 1038.37 1506.73L1070.67 1506.73C1329.34 1506.73 1539.04 1297.04 1539.04 1038.37V1038.37Z" fill="url(#paint0_radial_1405_184)"/>
</g>
<g filter="url(#filter1_f_1405_184)">
<path d="M1329.34 1155.09C1305.93 1053.97 1204.59 991.071 1103.47 1014.49V1014.49C1002.35 1037.9 938.983 1138.95 962.4 1240.07V1240.07C985.816 1341.18 1087.15 1404.09 1188.27 1380.67V1380.67C1289.39 1357.25 1352.76 1256.21 1329.34 1155.09V1155.09Z" fill="url(#paint1_radial_1405_184)"/>
<path d="M1329.34 1155.09C1305.93 1053.97 1204.59 991.071 1103.47 1014.49V1014.49C1002.35 1037.9 938.983 1138.95 962.4 1240.07V1240.07C985.816 1341.18 1087.15 1404.09 1188.27 1380.67V1380.67C1289.39 1357.25 1352.76 1256.21 1329.34 1155.09V1155.09Z" stroke="#00E29A" stroke-width="34.7068"/>
</g>
<g style="mix-blend-mode:color" filter="url(#filter2_f_1405_184)">
<rect width="395.85" height="395.39" rx="197.695" transform="matrix(-0.938454 0.345405 0.345405 0.938454 1477.49 933)" fill="url(#paint2_radial_1405_184)"/>
</g>
<g filter="url(#filter3_f_1405_184)">
<path d="M1464.5 1085.64C1533.61 998.454 1518.63 871.497 1431.44 802.39V802.39C1344.26 733.283 1217.24 747.675 1148.13 834.857V834.857C1079.02 922.039 1094 1049 1181.19 1118.1V1118.1C1268.37 1187.21 1395.39 1172.82 1464.5 1085.64V1085.64Z" fill="url(#paint3_angular_1405_184)"/>
</g>
<g style="mix-blend-mode:lighten" filter="url(#filter4_f_1405_184)">
<rect width="376.373" height="375.935" rx="187.968" transform="matrix(-0.885522 0.464597 0.464597 0.885522 1225.29 596)" fill="#FF4400"/>
</g>
<defs>
<filter id="filter0_f_1405_184" x="0.245544" y="0.245544" width="2108.54" height="2076.24" filterUnits="userSpaceOnUse" color-interpolation-filters="sRGB">
<feFlood flood-opacity="0" result="BackgroundImageFix"/>
<feBlend mode="normal" in="SourceGraphic" in2="BackgroundImageFix" result="shape"/>
<feGaussianBlur stdDeviation="284.877" result="effect1_foregroundBlur_1405_184"/>
</filter>
<filter id="filter1_f_1405_184" x="640.176" y="692.239" width="1011.39" height="1010.68" filterUnits="userSpaceOnUse" color-interpolation-filters="sRGB">
<feFlood flood-opacity="0" result="BackgroundImageFix"/>
<feBlend mode="normal" in="SourceGraphic" in2="BackgroundImageFix" result="shape"/>
<feGaussianBlur stdDeviation="150" result="effect1_foregroundBlur_1405_184"/>
</filter>
<filter id="filter2_f_1405_184" x="912.09" y="739.134" width="895.879" height="895.517" filterUnits="userSpaceOnUse" color-interpolation-filters="sRGB">
<feFlood flood-opacity="0" result="BackgroundImageFix"/>
<feBlend mode="normal" in="SourceGraphic" in2="BackgroundImageFix" result="shape"/>
<feGaussianBlur stdDeviation="125" result="effect1_foregroundBlur_1405_184"/>
</filter>
<filter id="filter3_f_1405_184" x="898.039" y="552.07" width="816.551" height="816.354" filterUnits="userSpaceOnUse" color-interpolation-filters="sRGB">
<feFlood flood-opacity="0" result="BackgroundImageFix"/>
<feBlend mode="normal" in="SourceGraphic" in2="BackgroundImageFix" result="shape"/>
<feGaussianBlur stdDeviation="103.317" result="effect1_foregroundBlur_1405_184"/>
</filter>
<filter id="filter4_f_1405_184" x="657.812" y="361.853" width="976.316" height="976.057" filterUnits="userSpaceOnUse" color-interpolation-filters="sRGB">
<feFlood flood-opacity="0" result="BackgroundImageFix"/>
<feBlend mode="normal" in="SourceGraphic" in2="BackgroundImageFix" result="shape"/>
<feGaussianBlur stdDeviation="150" result="effect1_foregroundBlur_1405_184"/>
</filter>
<radialGradient id="paint0_radial_1405_184" cx="0" cy="0" r="1" gradientUnits="userSpaceOnUse" gradientTransform="translate(1054.52 1038.37) rotate(90) scale(468.367 1540.7)">
<stop stop-color="#8B78FF"/>
<stop offset="1" stop-color="#6349FF" stop-opacity="0.37"/>
</radialGradient>
<radialGradient id="paint1_radial_1405_184" cx="0" cy="0" r="1" gradientUnits="userSpaceOnUse" gradientTransform="translate(1225.9 1175.39) rotate(77.5609) scale(818.231 819.936)">
<stop stop-color="#5AE9FD"/>
<stop offset="1" stop-color="#5AE9FD" stop-opacity="0"/>
</radialGradient>
<radialGradient id="paint2_radial_1405_184" cx="0" cy="0" r="1" gradientUnits="userSpaceOnUse" gradientTransform="translate(197.925 197.695) rotate(90) scale(197.695 197.925)">
<stop stop-color="#38FF70"/>
<stop offset="1" stop-color="#4AE074" stop-opacity="0.65"/>
</radialGradient>
<radialGradient id="paint3_angular_1405_184" cx="0" cy="0" r="1" gradientUnits="userSpaceOnUse" gradientTransform="translate(1306.31 960.247) rotate(154.471) scale(242.162 242.666)">
<stop stop-color="#FFE072"/>
<stop offset="1" stop-color="#FFD84B" stop-opacity="0"/>
</radialGradient>
</defs>
</svg>
